<svg width="1200" height="720" xmlns="http://www.w3.org/2000/svg">
<defs><linearGradient id="dbg" x1="0" y1="0" x2="1" y2="1"><stop offset="0%" stop-color="#162440"/><stop offset="100%" stop-color="#0c1828"/></linearGradient></defs>
<rect x="10" y="10" width="1190" height="710" fill="#000" rx="12" opacity="0.4"/>
<rect x="0" y="0" width="1200" height="720" fill="#1e293b" rx="10" stroke="#334155" stroke-width="1"/>
<rect x="0" y="0" width="1200" height="32" fill="#1a2332" rx="10"/>
<rect x="0" y="22" width="1200" height="10" fill="#1a2332" rx="0"/>
<rect x="0" y="32" width="1200" height="1" fill="#1e3a5f" rx="0"/>
<circle cx="18" cy="16" r="6" fill="#ff5f57"/>
<circle cx="38" cy="16" r="6" fill="#febc2e"/>
<circle cx="58" cy="16" r="6" fill="#28c840"/>
<text x="600" y="22" fill="#94a3b8" font-size="12" font-family="'Segoe UI',Arial,sans-serif" text-anchor="middle" font-weight="normal">APRS Client — 2E0LXY</text>
<rect x="0" y="33" width="1200" height="36" fill="#0c1527" rx="0"/>
<rect x="0" y="69" width="1200" height="1" fill="#1e3a5f" rx="0"/>
<text x="14" y="56" fill="#e2e8f0" font-size="16" font-family="'Segoe UI',Arial,sans-serif" text-anchor="start" font-weight="normal">📡</text>
<text x="36" y="57" fill="#38bdf8" font-size="13" font-family="'Segoe UI',Arial,sans-serif" text-anchor="start" font-weight="bold">APRS Client</text>
<rect x="148" y="39" width="70" height="24" rx="12" fill="none" stroke="#60a5fa" stroke-width="1"/>
<text x="183" y="56" fill="#60a5fa" font-size="11" font-family="'Segoe UI',Arial,sans-serif" text-anchor="middle" font-weight="bold">2E0LXY</text>
<circle cx="235" cy="51" r="5" fill="#4ade80"/>
<text x="245" y="55" fill="#94a3b8" font-size="10" font-family="'Segoe UI',Arial,sans-serif" text-anchor="start" font-weight="normal">Connected</text>
<text x="316" y="55" fill="#e2e8f0" font-size="11" font-family="'Segoe UI',Arial,sans-serif" text-anchor="start" font-weight="normal">📍</text>
<text x="330" y="55" fill="#4ade80" font-size="10" font-family="'Segoe UI',Arial,sans-serif" text-anchor="start" font-weight="normal">GPS fix</text>
<rect x="380" y="40" width="36" height="20" fill="#ef4444" rx="10"/>
<text x="398" y="54" fill="white" font-size="11" font-family="'Segoe UI',Arial,sans-serif" text-anchor="middle" font-weight="bold">3</text>
<rect x="1030" y="39" width="30" height="24" fill="none" rx="6" stroke="#334155" stroke-width="1"/>
<text x="1045" y="55" fill="#e2e8f0" font-size="14" font-family="'Segoe UI',Arial,sans-serif" text-anchor="middle" font-weight="normal">⚙</text>
<rect x="1070" y="39" width="120" height="24" fill="#ef4444" rx="6" opacity="0.85"/>
<text x="1130" y="55" fill="white" font-size="11" font-family="'Segoe UI',Arial,sans-serif" text-anchor="middle" font-weight="normal">✕ Disconnect</text>
<rect x="0" y="70" width="1200" height="650" fill="url(#dbg)" rx="0"/>
<rect x="0" y="70" width="1200" height="44" fill="#0c1527" rx="0"/>
<rect x="0" y="114" width="1200" height="1" fill="#1e3a5f" rx="0"/>
<text x="18" y="98" fill="#e2e8f0" font-size="16" font-family="'Segoe UI',Arial,sans-serif" text-anchor="start" font-weight="normal">📡</text>
<text x="40" y="99" fill="#38bdf8" font-size="14" font-family="'Segoe UI',Arial,sans-serif" text-anchor="start" font-weight="bold">APRS Net</text>
<rect x="130" y="79" width="72" height="24" fill="#1e3a5f" rx="12"/>
<rect x="130" y="79" width="72" height="24" rx="12" fill="none" stroke="#60a5fa" stroke-width="1"/>
<text x="166" y="96" fill="#60a5fa" font-size="11" font-family="'Segoe UI',Arial,sans-serif" text-anchor="middle" font-weight="bold">2E0LXY</text>
<circle cx="220" cy="91" r="5" fill="#4ade80"/>
<rect x="920" y="78" width="120" height="28" fill="#1e293b" rx="4"/>
<text x="928" y="97" fill="#94a3b8" font-size="10" font-family="'Segoe UI',Arial,sans-serif" text-anchor="start" font-weight="normal">RX:</text>
<text x="1032" y="97" fill="#38bdf8" font-size="11" font-family="'Segoe UI',Arial,sans-serif" text-anchor="end" font-weight="bold">124,837</text>
<rect x="1055" y="78" width="120" height="28" fill="#1e293b" rx="4"/>
<text x="1063" y="97" fill="#94a3b8" font-size="10" font-family="'Segoe UI',Arial,sans-serif" text-anchor="start" font-weight="normal">Stations:</text>
<text x="1167" y="97" fill="#4ade80" font-size="11" font-family="'Segoe UI',Arial,sans-serif" text-anchor="end" font-weight="bold">412</text>
<rect x="0" y="115" width="260" height="605" fill="#162032" rx="0"/>
<rect x="260" y="115" width="1" height="605" fill="#1e3a5f" rx="0"/>
<text x="16" y="142" fill="#e2e8f0" font-size="12" font-family="'Segoe UI',Arial,sans-serif" text-anchor="start" font-weight="600">Station Filters</text>
<rect x="12" y="156" width="236" height="26" fill="#1e293b" rx="4"/>
<circle cx="24" cy="169" r="5" fill="#3b82f6"/>
<text x="34" y="173" fill="#e2e8f0" font-size="11" font-family="'Segoe UI',Arial,sans-serif" text-anchor="start" font-weight="normal">Ham</text>
<rect x="222" y="161" width="16" height="16" fill="none" rx="3" stroke="#38bdf8" stroke-width="1.5"/>
<text x="224" y="173" fill="#38bdf8" font-size="11" font-family="'Segoe UI',Arial,sans-serif" text-anchor="start" font-weight="bold">✓</text>
<rect x="12" y="188" width="236" height="26" fill="#1e293b" rx="4"/>
<circle cx="24" cy="201" r="5" fill="#22c55e"/>
<text x="34" y="205" fill="#e2e8f0" font-size="11" font-family="'Segoe UI',Arial,sans-serif" text-anchor="start" font-weight="normal">Weather</text>
<rect x="222" y="193" width="16" height="16" fill="none" rx="3" stroke="#38bdf8" stroke-width="1.5"/>
<text x="224" y="205" fill="#38bdf8" font-size="11" font-family="'Segoe UI',Arial,sans-serif" text-anchor="start" font-weight="bold">✓</text>
<rect x="12" y="220" width="236" height="26" fill="#1e293b" rx="4"/>
<circle cx="24" cy="233" r="5" fill="#14b8a6"/>
<text x="34" y="237" fill="#e2e8f0" font-size="11" font-family="'Segoe UI',Arial,sans-serif" text-anchor="start" font-weight="normal">Ships</text>
<rect x="222" y="225" width="16" height="16" fill="none" rx="3" stroke="#38bdf8" stroke-width="1.5"/>
<text x="224" y="237" fill="#38bdf8" font-size="11" font-family="'Segoe UI',Arial,sans-serif" text-anchor="start" font-weight="bold">✓</text>
<rect x="12" y="252" width="236" height="26" fill="#1e293b" rx="4"/>
<circle cx="24" cy="265" r="5" fill="#a855f7"/>
<text x="34" y="269" fill="#e2e8f0" font-size="11" font-family="'Segoe UI',Arial,sans-serif" text-anchor="start" font-weight="normal">LoRa</text>
<rect x="222" y="257" width="16" height="16" fill="none" rx="3" stroke="#38bdf8" stroke-width="1.5"/>
<text x="224" y="269" fill="#38bdf8" font-size="11" font-family="'Segoe UI',Arial,sans-serif" text-anchor="start" font-weight="bold">✓</text>
<rect x="12" y="284" width="236" height="26" fill="#1e293b" rx="4"/>
<circle cx="24" cy="297" r="5" fill="#374151"/>
<text x="34" y="301" fill="#94a3b8" font-size="11" font-family="'Segoe UI',Arial,sans-serif" text-anchor="start" font-weight="normal">MMDVM</text>
<rect x="222" y="289" width="16" height="16" fill="none" rx="3" stroke="#374151" stroke-width="1.5"/>
<rect x="261" y="115" width="939" height="605" fill="url(#dbg)" rx="0"/>
<line x1="341" y1="115" x2="341" y2="720" stroke="#1e3560" stroke-width="0.4" opacity="0.35"/>
<line x1="431" y1="115" x2="431" y2="720" stroke="#1e3560" stroke-width="0.4" opacity="0.35"/>
<line x1="521" y1="115" x2="521" y2="720" stroke="#1e3560" stroke-width="0.4" opacity="0.35"/>
<line x1="611" y1="115" x2="611" y2="720" stroke="#1e3560" stroke-width="0.4" opacity="0.35"/>
<line x1="701" y1="115" x2="701" y2="720" stroke="#1e3560" stroke-width="0.4" opacity="0.35"/>
<line x1="791" y1="115" x2="791" y2="720" stroke="#1e3560" stroke-width="0.4" opacity="0.35"/>
<line x1="881" y1="115" x2="881" y2="720" stroke="#1e3560" stroke-width="0.4" opacity="0.35"/>
<line x1="971" y1="115" x2="971" y2="720" stroke="#1e3560" stroke-width="0.4" opacity="0.35"/>
<line x1="1061" y1="115" x2="1061" y2="720" stroke="#1e3560" stroke-width="0.4" opacity="0.35"/>
<line x1="1151" y1="115" x2="1151" y2="720" stroke="#1e3560" stroke-width="0.4" opacity="0.35"/>
<line x1="261" y1="165" x2="1200" y2="165" stroke="#1e3560" stroke-width="0.4" opacity="0.35"/>
<line x1="261" y1="230" x2="1200" y2="230" stroke="#1e3560" stroke-width="0.4" opacity="0.35"/>
<line x1="261" y1="295" x2="1200" y2="295" stroke="#1e3560" stroke-width="0.4" opacity="0.35"/>
<line x1="261" y1="360" x2="1200" y2="360" stroke="#1e3560" stroke-width="0.4" opacity="0.35"/>
<line x1="261" y1="425" x2="1200" y2="425" stroke="#1e3560" stroke-width="0.4" opacity="0.35"/>
<line x1="261" y1="490" x2="1200" y2="490" stroke="#1e3560" stroke-width="0.4" opacity="0.35"/>
<line x1="261" y1="555" x2="1200" y2="555" stroke="#1e3560" stroke-width="0.4" opacity="0.35"/>
<line x1="261" y1="620" x2="1200" y2="620" stroke="#1e3560" stroke-width="0.4" opacity="0.35"/>
<line x1="261" y1="685" x2="1200" y2="685" stroke="#1e3560" stroke-width="0.4" opacity="0.35"/>
<line x1="511" y1="115" x2="511" y2="720" stroke="#263d6a" stroke-width="1.5" opacity="0.5"/>
<line x1="261" y1="295" x2="1200" y2="295" stroke="#263d6a" stroke-width="1.5" opacity="0.5"/>
<circle cx="381" cy="215" r="8" fill="#3b82f6" opacity="0.85" stroke="white" stroke-width="0.8"/>
<circle cx="541" cy="195" r="8" fill="#a855f7" opacity="0.85" stroke="white" stroke-width="0.8"/>
<circle cx="681" cy="265" r="8" fill="#3b82f6" opacity="0.85" stroke="white" stroke-width="0.8"/>
<circle cx="821" cy="205" r="8" fill="#ef4444" opacity="0.85" stroke="white" stroke-width="0.8"/>
<circle cx="441" cy="355" r="8" fill="#22c55e" opacity="0.85" stroke="white" stroke-width="0.8"/>
<circle cx="601" cy="375" r="8" fill="#3b82f6" opacity="0.85" stroke="white" stroke-width="0.8"/>
<circle cx="761" cy="345" r="8" fill="#14b8a6" opacity="0.85" stroke="white" stroke-width="0.8"/>
<circle cx="911" cy="255" r="8" fill="#3b82f6" opacity="0.85" stroke="white" stroke-width="0.8"/>
<circle cx="1011" cy="375" r="8" fill="#f97316" opacity="0.85" stroke="white" stroke-width="0.8"/>
<circle cx="341" cy="435" r="8" fill="#3b82f6" opacity="0.85" stroke="white" stroke-width="0.8"/>
<circle cx="461" cy="475" r="8" fill="#a855f7" opacity="0.85" stroke="white" stroke-width="0.8"/>
<circle cx="711" cy="455" r="8" fill="#3b82f6" opacity="0.85" stroke="white" stroke-width="0.8"/>
<circle cx="561" cy="315" r="15" fill="#38bdf8" opacity="0.15"/>
<circle cx="561" cy="315" r="8" fill="#38bdf8" stroke="white" stroke-width="1.5"/>
</svg>